<svg id="Layer_1" data-name="Layer 1" xmlns="http://www.w3.org/2000/svg" viewBox="0 0 39.39 43.68"><defs><style>.cls-1{fill:#03afd9;}</style></defs><title>bq-logo</title><path class="cls-1" d="M44.51,361.25v5.43h-1V333.51h1V352l.08.05c1.94-4.12,5.13-6.39,9.7-6.11s7.51,2.84,9,7.21a10.73,10.73,0,0,1,1.5-3.19,8.87,8.87,0,0,1,2.51-2.41,10.72,10.72,0,0,1,3.21-1.41,10.43,10.43,0,0,1,3.48-.2A10.1,10.1,0,0,1,80,349.07,12.73,12.73,0,0,1,81.89,352L82,352v-5.43h.94v30.67H82V361.24l-.08,0a1.88,1.88,0,0,0-.16.23,8.87,8.87,0,0,1-1.37,2.29,10.78,10.78,0,0,1-3.11,2.5,8.77,8.77,0,0,1-3,.95,9.66,9.66,0,0,1-4.77-.41,9.54,9.54,0,0,1-5.37-4.55c-.35-.65-.59-1.37-.88-2a.44.44,0,0,0-.06-.1c-1.5,4.25-4.35,6.92-9,7.18s-7.75-1.94-9.7-6.05Zm28.35,5.26a13.38,13.38,0,0,0,1.71-.26,11.64,11.64,0,0,0,2-.66,7.68,7.68,0,0,0,3-2.25,13.39,13.39,0,0,0,1.3-1.88,9.9,9.9,0,0,0,1.17-4.1,10.33,10.33,0,0,0-.5-4.13,9.49,9.49,0,0,0-3.69-5A8.54,8.54,0,0,0,75.1,347a9.61,9.61,0,0,0-4-.12,8.53,8.53,0,0,0-4.1,2,9.17,9.17,0,0,0-2.38,3.36,11.3,11.3,0,0,0-.85,3.74,10.07,10.07,0,0,0,.13,2.39,9.86,9.86,0,0,0,2.24,5.06,8.7,8.7,0,0,0,5,2.86C71.65,366.41,72.23,366.44,72.86,366.51Zm-19.18,0a7.52,7.52,0,0,0,2.82-.5,8.59,8.59,0,0,0,5.37-5,11.1,11.1,0,0,0,.81-5.52,10.91,10.91,0,0,0-.79-3.18,8.91,8.91,0,0,0-4.37-4.72,8.85,8.85,0,0,0-5.14-.77,7.85,7.85,0,0,0-3.09,1.06A9.43,9.43,0,0,0,46.8,350a10.48,10.48,0,0,0-1.48,2.41,9.67,9.67,0,0,0-.8,3.07,11.36,11.36,0,0,0,.18,3.39,10.07,10.07,0,0,0,2.3,4.6,9.42,9.42,0,0,0,2.72,2.09,10.34,10.34,0,0,0,2.48.83A10.16,10.16,0,0,0,53.68,366.49Z" transform="translate(-43.54 -333.51)"/></svg>