<svg id="Layer_1" data-name="Layer 1" xmlns="http://www.w3.org/2000/svg" viewBox="0 0 93.46 52.49"><title>ithems-logo</title><path d="M300.13,39c.94,0,1.86,0,2.78,0,.12,0,.25.14.33.25l3.93,5.45c.08.12.17.24.29.39l.27-.35,4-5.51a.52.52,0,0,1,.47-.25c.88,0,1.75,0,2.65,0V56.74h-3V44.11l-.09,0-4.24,5.76L303.18,44V56.73h-3.05Z" transform="translate(-238.23 -36.19)"/><path d="M275.78,56.74h-3.22v-8h-5.94v8H263.4V39h3.21v6.11c0,.24,0,.35.31.34h5.33l.29,0V39h3.24Z" transform="translate(-238.23 -36.19)"/><path d="M283.07,39h9.65v3.21h-6.4v3.23h6.4V48.7h-6.4v4.81h6.39v3.22h-9.64Z" transform="translate(-238.23 -36.19)"/><path d="M254.18,42.05V56.74h-3.24V42.06h-3c-.09,0-.26-.12-.26-.19,0-.94,0-1.88,0-2.84h9.67v3Z" transform="translate(-238.23 -36.19)"/><path d="M329.29,40.7c-.54.55-1,1.09-1.54,1.57a1.05,1.05,0,0,1-1.43-.12,1.11,1.11,0,0,0-1.49-.07,1.14,1.14,0,0,0-.08,1.76c1.35,1.35,2.7,2.71,4.06,4a5.53,5.53,0,0,1,1.7,3.58,5.34,5.34,0,0,1-4,5.55,5.28,5.28,0,0,1-5.24-1.44c-.35-.34-.69-.68-1-1a14.29,14.29,0,0,1,1.23-1.32,1.5,1.5,0,0,1,2,.16,2.29,2.29,0,0,0,3.84-1,2.2,2.2,0,0,0-.62-2.22l-4.1-4.11A4.24,4.24,0,1,1,328.5,40Zm-.89.06c-.16-.14-.26-.21-.35-.3a3.56,3.56,0,0,0-5.14,4.93c.51.56,1.07,1.08,1.6,1.63a3.5,3.5,0,0,1,.35.46l1.28-1.29c-.06-.06-.13-.15-.21-.22-.56-.57-1.13-1.12-1.69-1.7a1.82,1.82,0,0,1,2.51-2.64c.21.18.42.28.66.07S328,41.11,328.4,40.76Z" transform="translate(-238.23 -36.19)"/><path d="M238.56,42.43h3.29V56.8h-3.29Z" transform="translate(-238.23 -36.19)"/><path d="M259.6,69.74a8.74,8.74,0,0,1-.89,0c-.1,0-.22-.14-.28-.25-.65-1.15-1.3-2.32-1.95-3.48a.93.93,0,0,0-.24-.3v4h-1V64.06c.34,0,.67,0,1,0a.46.46,0,0,1,.28.24c.63,1.14,1.26,2.28,1.88,3.43a.68.68,0,0,0,.23.25V64.08h.94Z" transform="translate(-238.23 -36.19)"/><path d="M289.69,79.27h-.89v-4.1l-.08,0L287.39,77l-1.33-1.8-.07,0v4.09h-.89v-5.6a.89.89,0,0,1,1.2.4c.35.49.7,1,1.09,1.51l.77-1a2.26,2.26,0,0,0,.29-.42c.26-.59.73-.53,1.24-.47Z" transform="translate(-238.23 -36.19)"/><path d="M242.29,69.74c-.41,0-.75,0-1.08,0-.09,0-.18-.12-.24-.2-.42-.6-.84-1.19-1.25-1.79l-.24-.3v2.27h-.91V64.07a5,5,0,0,1,2.33.24,1.45,1.45,0,0,1,.85,1.37,1.59,1.59,0,0,1-.83,1.53,3.68,3.68,0,0,1-.34.16Zm-2.8-3.12c.46,0,.93,0,1.2-.41a.77.77,0,0,0,0-.9,1.25,1.25,0,0,0-1.19-.33Z" transform="translate(-238.23 -36.19)"/><path d="M307.41,79.31h-.88V75.69c.31,0,.65-.17.94.15a1.19,1.19,0,0,1,1.66.17,3.43,3.43,0,0,1,.68-.36,1.17,1.17,0,0,1,1.61,1.13c.05.83,0,1.66,0,2.52h-.88c0-.13,0-.26,0-.39,0-.67,0-1.34,0-2a.44.44,0,0,0-.42-.48.5.5,0,0,0-.57.43,3.82,3.82,0,0,0-.06.68c0,.58,0,1.16,0,1.77h-.9c0-.11,0-.23,0-.35,0-.65,0-1.3,0-2,0-.27-.09-.55-.45-.58s-.49.14-.58.5a1.88,1.88,0,0,0,0,.47c0,.51,0,1,0,1.54Z" transform="translate(-238.23 -36.19)"/><path d="M282.41,79.31c-.49-.11-1,.22-1.22-.39-.94.6-1.58.59-2.13,0s-.51-1.57.4-2.72c-.14-.43-.31-.83-.41-1.24a1.16,1.16,0,0,1,.43-1.25,1.33,1.33,0,0,1,1.36-.13,1.17,1.17,0,0,1,.5,1.63,4.12,4.12,0,0,1-.62.88c-.13.15-.17.24-.05.41.22.34.43.69.67,1.08l.51-.7.57.45c-.18.26-.34.51-.52.73a.32.32,0,0,0,0,.45C282.06,78.73,282.2,79,282.41,79.31Zm-2.5-2.49a5.83,5.83,0,0,0-.38.74.85.85,0,0,0,.41,1,.62.62,0,0,0,.73-.19c.21-.2,0-.33-.09-.47C280.39,77.58,280.17,77.25,279.91,76.82Zm.22-1.24.14,0a5.92,5.92,0,0,0,.44-.87.63.63,0,0,0-.18-.5.45.45,0,0,0-.42,0,.75.75,0,0,0-.25.51A3.81,3.81,0,0,0,280.13,75.58Z" transform="translate(-238.23 -36.19)"/><path d="M250.77,64.07h3v1c-.58,0-1.16,0-1.74,0-.25,0-.33.07-.32.33,0,.79,0,.79.77.79h1.31v1h-2.05v1.64h2v.95h-3Z" transform="translate(-238.23 -36.19)"/><path d="M246.74,65.8c.54-.54,1-1,1.45-1.46a.77.77,0,0,1,.71-.28c.25,0,.5,0,.84,0l-2.53,2.58,2.55,3.1a7,7,0,0,0-.93,0c-.38.06-.52-.21-.7-.43-.43-.53-.87-1-1.36-1.66v2h-.85V64.08h.82Z" transform="translate(-238.23 -36.19)"/><path d="M281.83,66.43V64.08h.89v5.63c-.53.15-.82.09-.92-.15a4.27,4.27,0,0,1-.83.28A1.58,1.58,0,0,1,279.3,69a2.16,2.16,0,0,1-.1-1.81C279.61,66.06,280.67,65.75,281.83,66.43Zm.05,1.53a1,1,0,1,0-1,1.08A1,1,0,0,0,281.88,68Z" transform="translate(-238.23 -36.19)"/><path d="M295,66.14c.32.09.69-.17.94.22a1.68,1.68,0,0,1,2.27.3,2.16,2.16,0,0,1,0,2.57c-.56.7-1.29.79-2.34.28v2.17H295ZM297.72,68a1,1,0,1,0-1.89,0,1,1,0,1,0,1.89,0Z" transform="translate(-238.23 -36.19)"/><path d="M299.2,79.3h-.9V73.63h.89v2.18a5.19,5.19,0,0,1,.94-.21,1.08,1.08,0,0,1,1.23,1c.07.89,0,1.79,0,2.7h-.87V77.88c0-.26,0-.52,0-.78,0-.45-.19-.66-.55-.68a.6.6,0,0,0-.72.59c-.05.5,0,1,0,1.5Z" transform="translate(-238.23 -36.19)"/><path d="M242.68,73.58h.87v2.19a6.51,6.51,0,0,1,1.09-.18,1.07,1.07,0,0,1,1.11,1c.05.87,0,1.74,0,2.64h-.87V78c0-.34,0-.68,0-1s-.19-.55-.5-.58-.67.11-.74.49a7.31,7.31,0,0,0-.07,1c0,.43,0,.86,0,1.32h-.89Z" transform="translate(-238.23 -36.19)"/><path d="M314.89,76c.11-.3.29-.35.94-.23v3.56c-.6.13-.82.08-.94-.2-1.06.49-1.81.38-2.35-.37a2.16,2.16,0,0,1,.14-2.6A1.61,1.61,0,0,1,314.89,76Zm.1,1.55a1,1,0,1,0-1.89,0,1,1,0,1,0,1.89,0Z" transform="translate(-238.23 -36.19)"/><path d="M293.36,76l.08-.28h.84V79.3h-.85l-.07-.23c-1.08.5-1.84.39-2.37-.35a2.18,2.18,0,0,1,.13-2.62A1.64,1.64,0,0,1,293.36,76Zm.06,1.52a1,1,0,0,0-.89-1.07,1,1,0,0,0-1,1.06,1,1,0,0,0,1,1.11A1,1,0,0,0,293.42,77.49Z" transform="translate(-238.23 -36.19)"/><path d="M273.16,75.91c.25-.46.64-.14,1-.27v3.58c-.51.15-.84.09-.95-.19a1.48,1.48,0,0,1-1.46.27,2.11,2.11,0,0,1-.88-.65,2.09,2.09,0,0,1,.15-2.58A1.62,1.62,0,0,1,273.16,75.91Zm.12,1.57a1,1,0,0,0-.78-1.07,1,1,0,0,0-1.1,1,1,1,0,0,0,.89,1.2A1,1,0,0,0,273.28,77.48Z" transform="translate(-238.23 -36.19)"/><path d="M328.55,79.27h-.84l-.06-.23c-1.1.51-1.83.4-2.38-.34a2.18,2.18,0,0,1,.12-2.6,1.65,1.65,0,0,1,2.25-.16l.07-.26h.84Zm-1.79-2.88a1,1,0,0,0-.92,1.08,1,1,0,0,0,.91,1.1,1.1,1.1,0,0,0,0-2.18Z" transform="translate(-238.23 -36.19)"/><path d="M310.43,66.4c.1-.28.28-.32.92-.21v3.53c-.53.14-.82.08-.92-.21a1.49,1.49,0,0,1-1.44.28,2.27,2.27,0,0,1-.9-.62,2.12,2.12,0,0,1,.07-2.56A1.67,1.67,0,0,1,310.43,66.4Zm-1.79,1.54a1,1,0,1,0,1.89.07,1,1,0,0,0-.95-1.15A1,1,0,0,0,308.64,67.94Z" transform="translate(-238.23 -36.19)"/><path d="M238.23,87.9l.72-.71a3.47,3.47,0,0,0,.31.36.77.77,0,0,0,1.07,0,.75.75,0,0,0,0-1.1c-.44-.46-.9-.89-1.34-1.35a1.35,1.35,0,1,1,2.05-1.71l-.67.58-.18-.16a.39.39,0,0,0-.58,0,.38.38,0,0,0,0,.58l.88.89c.21.22.43.42.62.64a1.7,1.7,0,0,1-2.51,2.29Z" transform="translate(-238.23 -36.19)"/><path d="M315.53,71.7c.42-.79.8-1.54,1.21-2.26a.63.63,0,0,0,0-.74c-.42-.74-.83-1.49-1.24-2.23l-.14-.32c.36,0,.68,0,1,0a.43.43,0,0,1,.26.22c.28.48.53,1,.83,1.52.25-.52.5-1,.72-1.47a.38.38,0,0,1,.43-.28c.26,0,.52,0,.84,0-.21.42-.39.79-.58,1.15q-1.06,2.06-2.12,4.12a.42.42,0,0,1-.47.28C316,71.68,315.81,71.7,315.53,71.7Z" transform="translate(-238.23 -36.19)"/><path d="M305.61,77.69h-2.54a.88.88,0,0,0,.59.92c.62.21,1-.14,1.3-.64l.66.36a1.74,1.74,0,0,1-1.76,1.08,1.67,1.67,0,0,1-1.63-1.35,3,3,0,0,1,0-.85,1.68,1.68,0,0,1,2-1.61A1.72,1.72,0,0,1,305.61,77.69Zm-.87-.69a.73.73,0,0,0-.79-.66.77.77,0,0,0-.82.66Z" transform="translate(-238.23 -36.19)"/><path d="M275.3,68.14h-2.5a.88.88,0,0,0,.57.92c.49.18.82,0,1.32-.63l.65.36a1.76,1.76,0,0,1-1.93,1.06,1.64,1.64,0,0,1-1.48-1.46,3.08,3.08,0,0,1,0-.91,1.72,1.72,0,1,1,3.37.66Zm-.82-.68a.8.8,0,0,0-.89-.67.75.75,0,0,0-.73.67Z" transform="translate(-238.23 -36.19)"/><path d="M261.62,77.67H259a.9.9,0,0,0,.55.91c.63.23,1-.11,1.33-.63l.67.36a1.74,1.74,0,0,1-1.71,1.08,1.64,1.64,0,0,1-1.64-1.19,2.12,2.12,0,0,1,.4-2.14,1.7,1.7,0,0,1,1.8-.41,1.47,1.47,0,0,1,1.1,1.26C261.58,77.14,261.59,77.38,261.62,77.67ZM259.09,77h1.61a.76.76,0,0,0-.78-.64A.82.82,0,0,0,259.09,77Z" transform="translate(-238.23 -36.19)"/><path d="M250.08,78.33a1.91,1.91,0,0,1-3.05.49c-.67-.77-.68-2.81.8-3.19a1.7,1.7,0,0,1,2.18,2h-2.5a.86.86,0,0,0,.53.92c.47.2.82.05,1.36-.61ZM249.17,77a.77.77,0,0,0-.89-.64.72.72,0,0,0-.7.64Z" transform="translate(-238.23 -36.19)"/><path d="M252.75,75.57a1.87,1.87,0,0,1,1.89,2,1.92,1.92,0,0,1-3.84-.13A1.86,1.86,0,0,1,252.75,75.57Zm1,1.92a1,1,0,0,0-1-1.1,1.09,1.09,0,1,0,1,1.1Z" transform="translate(-238.23 -36.19)"/><path d="M248.58,86.94a.9.9,0,0,0,.55.93c.48.18.78,0,1.35-.62l.68.37a1.8,1.8,0,0,1-1.86,1,1.83,1.83,0,0,1-1.59-2.38,1.64,1.64,0,0,1,1.79-1.42,1.58,1.58,0,0,1,1.61,1.6c0,.14,0,.29,0,.48Zm1.68-.68a.79.79,0,0,0-.9-.65.72.72,0,0,0-.71.65Z" transform="translate(-238.23 -36.19)"/><path d="M262.83,86.94h-2.51a.87.87,0,0,0,.51.92c.48.2.78.07,1.39-.61l.63.36A1.76,1.76,0,0,1,261,88.67a1.66,1.66,0,0,1-1.57-1.48,3.17,3.17,0,0,1,.06-1.11,1.6,1.6,0,0,1,1.84-1.21,1.57,1.57,0,0,1,1.49,1.46C262.85,86.52,262.83,86.71,262.83,86.94Zm-.85-.67a.77.77,0,0,0-.88-.66.73.73,0,0,0-.73.66Z" transform="translate(-238.23 -36.19)"/><path d="M304.73,69.75h-.91v-3.6c.34.07.7-.16,1,.15a5.59,5.59,0,0,1,.57-.22,1.2,1.2,0,0,1,1.56,1.11c0,.72,0,1.44,0,2.15v.4H306V68a4.48,4.48,0,0,0-.05-.64.48.48,0,0,0-.53-.47.57.57,0,0,0-.64.4,3.36,3.36,0,0,0-.09.7C304.72,68.55,304.73,69.13,304.73,69.75Z" transform="translate(-238.23 -36.19)"/><path d="M241.66,73.59v.91H241c-.45,0-.45,0-.45.44v4.32h-.93V74.51h-1.08v-.92Z" transform="translate(-238.23 -36.19)"/><path d="M252.05,84.92c.34.12.7-.15.91.14a6,6,0,0,1,1.07-.18,1,1,0,0,1,1.09,1c0,.88,0,1.76,0,2.67h-.87c0-.38,0-.76,0-1.14s0-.77,0-1.16-.18-.54-.51-.56-.66.12-.7.48a13.5,13.5,0,0,0-.07,1.42c0,.32,0,.63,0,1h-.89Z" transform="translate(-238.23 -36.19)"/><path d="M265.25,66.14c.32.08.66-.13.95.18a1.56,1.56,0,0,1,1.19-.25,1,1,0,0,1,.9.94c0,.9,0,1.81,0,2.74h-.84V68.49c0-.35,0-.71,0-1.06s-.2-.54-.55-.56a.57.57,0,0,0-.67.49,8.89,8.89,0,0,0-.08,1.15c0,.41,0,.81,0,1.24h-.87Z" transform="translate(-238.23 -36.19)"/><path d="M238.67,37.81a1.53,1.53,0,1,1,1.52,1.53A1.5,1.5,0,0,1,238.67,37.81Z" transform="translate(-238.23 -36.19)"/><path d="M319.34,59a1.49,1.49,0,1,1,1.51-1.48A1.48,1.48,0,0,1,319.34,59Z" transform="translate(-238.23 -36.19)"/><path d="M275.15,73.56h1v5.76h-1Z" transform="translate(-238.23 -36.19)"/><path d="M243.27,64.07h1v5.7h-1Z" transform="translate(-238.23 -36.19)"/><path d="M270.67,64.88v1.25l.61,0V67l-.6,0v2.73h-.92V67l-.62,0v-.81l.61,0V64.88Z" transform="translate(-238.23 -36.19)"/><path d="M297.33,76.53l-.62,0v2.75h-.88V76.56l-.64,0V75.7l.61,0V74.4h.91v1.25l.62,0Z" transform="translate(-238.23 -36.19)"/><path d="M329.62,73.55h.9v5.77h-.9Z" transform="translate(-238.23 -36.19)"/><path d="M265.73,85.56l-.65.35c-.11-.1-.19-.23-.29-.25a.92.92,0,0,0-.39.07c0,.12,0,.29.09.35a3.8,3.8,0,0,0,.6.32c.72.34,1,.68.86,1.26a1.23,1.23,0,0,1-1.17,1,1.3,1.3,0,0,1-1.37-.88l.65-.32a2.94,2.94,0,0,0,.33.36.44.44,0,0,0,.64,0c.16-.17.09-.44-.17-.6s-.44-.23-.66-.34a.94.94,0,0,1-.61-1.1,1,1,0,0,1,.79-.85,1.09,1.09,0,0,1,1.2.43A2.75,2.75,0,0,1,265.73,85.56Z" transform="translate(-238.23 -36.19)"/><path d="M285.78,69l.67-.32c.09.11.14.24.23.28a1.36,1.36,0,0,0,.56.14c.08,0,.24-.2.23-.27a.9.9,0,0,0-.27-.46,2.81,2.81,0,0,0-.57-.3c-.55-.28-.72-.56-.66-1.1a1.1,1.1,0,0,1,2-.35l.08.15-.65.36c-.08-.09-.15-.22-.24-.24a1.22,1.22,0,0,0-.42,0,1.13,1.13,0,0,0,.1.37c.06.09.2.13.31.19s.25.11.37.18c.71.36.93.82.7,1.44a1.32,1.32,0,0,1-1.52.74A1.29,1.29,0,0,1,285.78,69Z" transform="translate(-238.23 -36.19)"/><path d="M269.85,76.75c-.73-.47-1.28-.46-1.68,0a1.08,1.08,0,0,0,0,1.41c.41.48.93.51,1.72.06,0,.29,0,.55,0,.82,0,.08-.12.18-.21.22a1.9,1.9,0,1,1,0-3.58.46.46,0,0,1,.23.31A6.34,6.34,0,0,1,269.85,76.75Z" transform="translate(-238.23 -36.19)"/><path d="M258.72,87.48a5,5,0,0,0,0,.68c0,.27-.11.37-.34.44a1.91,1.91,0,1,1,0-3.67c.25.07.36.18.34.45a4.71,4.71,0,0,0,0,.66,1.13,1.13,0,0,0-1.72.06,1,1,0,0,0,0,1.29C257.49,88,258.09,88,258.72,87.48Z" transform="translate(-238.23 -36.19)"/><path d="M244.9,86c-.77-.44-1.27-.42-1.69.09a1.09,1.09,0,0,0,0,1.41c.4.44,1,.45,1.67,0a8.09,8.09,0,0,1,0,.86c0,.08-.15.18-.26.22a1.9,1.9,0,1,1-.78-3.7C244.84,84.78,245,85,244.9,86Z" transform="translate(-238.23 -36.19)"/><path d="M291.83,67.22c-.77-.47-1.31-.45-1.72,0a1.07,1.07,0,0,0,.05,1.43c.42.46,1,.46,1.66,0a8.13,8.13,0,0,1,0,.86c0,.08-.14.19-.24.22a1.91,1.91,0,0,1-2.44-1.2,1.89,1.89,0,0,1,1.29-2.42,4,4,0,0,1,1.14,0c.19,0,.29.13.27.35S291.83,67,291.83,67.22Z" transform="translate(-238.23 -36.19)"/><path d="M300.49,69.78h-.9v-5.7h.9Z" transform="translate(-238.23 -36.19)"/><path d="M324.27,76.77c-.66-.49-1.24-.49-1.67,0a1.07,1.07,0,0,0,0,1.43c.41.48,1,.49,1.69,0,0,.31,0,.59,0,.87a.35.35,0,0,1-.18.2,1.91,1.91,0,1,1,0-3.57.36.36,0,0,1,.2.25C324.28,76.2,324.27,76.46,324.27,76.77Z" transform="translate(-238.23 -36.19)"/><path d="M263,76.53h-.67v-.86H263V74.39h.82v1.26h.67v.86h-.65v2.75H263Z" transform="translate(-238.23 -36.19)"/><path d="M318.22,79.27h-.81V76.55l-.66,0v-.83h.63V74.39h.82v1.26h.67v.86l-.65,0Z" transform="translate(-238.23 -36.19)"/><path d="M330.15,36.19a1.53,1.53,0,0,1,1.54,1.53,1.56,1.56,0,0,1-1.57,1.55,1.51,1.51,0,0,1-1.5-1.56A1.48,1.48,0,0,1,330.15,36.19Zm.89,1.52a.9.9,0,0,0-1.79,0,.9.9,0,0,0,1.79,0Z" transform="translate(-238.23 -36.19)"/><path d="M314.82,66.31l-.39.79-.2-.1a.59.59,0,0,0-.88.56c0,.58,0,1.18,0,1.77v.42h-.89V66.14l1.09.06A1,1,0,0,1,314.82,66.31Z" transform="translate(-238.23 -36.19)"/><path d="M276.25,69.77V66.12l.91.13a.41.41,0,0,0,.16,0,1.15,1.15,0,0,1,1.32,0l-.39.82L278.1,67c-.51-.23-.88,0-.93.54s0,1,0,1.54a1.62,1.62,0,0,1,0,.44.34.34,0,0,1-.21.21A5,5,0,0,1,276.25,69.77Z" transform="translate(-238.23 -36.19)"/><path d="M255.42,75.64c.33.1.67-.12,1,.17a1.17,1.17,0,0,1,1.43,0l-.4.81-.2-.09c-.43-.18-.78,0-.85.42a11.83,11.83,0,0,0-.05,1.33c0,.32,0,.63,0,1h-.88Z" transform="translate(-238.23 -36.19)"/><path d="M320.69,79.33h-1V75.68h1Z" transform="translate(-238.23 -36.19)"/><path d="M301.69,69.77V66.13h.91v3.64Z" transform="translate(-238.23 -36.19)"/><path d="M293,66.12h.9v3.65H293Z" transform="translate(-238.23 -36.19)"/><path d="M266.22,79.33h-.9V75.68h.9Z" transform="translate(-238.23 -36.19)"/><path d="M284,66.12h.91v3.64H284Z" transform="translate(-238.23 -36.19)"/><path d="M263.2,66.12h.91v3.65h-.91Z" transform="translate(-238.23 -36.19)"/><path d="M246.83,88.62h-.89V85h.89Z" transform="translate(-238.23 -36.19)"/><path d="M293.42,64.26a.46.46,0,0,1,.47.47.49.49,0,0,1-.49.46.46.46,0,0,1-.46-.48A.44.44,0,0,1,293.42,64.26Z" transform="translate(-238.23 -36.19)"/><path d="M302.18,64.26a.44.44,0,0,1,.45.48.46.46,0,0,1-.49.45.48.48,0,0,1-.46-.49A.47.47,0,0,1,302.18,64.26Z" transform="translate(-238.23 -36.19)"/><path d="M264.14,64.71a.47.47,0,0,1-.46.48.48.48,0,0,1-.49-.46.48.48,0,0,1,.95,0Z" transform="translate(-238.23 -36.19)"/><path d="M284.4,65.19a.45.45,0,0,1-.47-.46.47.47,0,1,1,.93,0A.45.45,0,0,1,284.4,65.19Z" transform="translate(-238.23 -36.19)"/><path d="M246.41,84a.45.45,0,0,1-.48-.45.49.49,0,0,1,.46-.49.48.48,0,0,1,.48.47A.44.44,0,0,1,246.41,84Z" transform="translate(-238.23 -36.19)"/><path d="M265.79,73.77a.47.47,0,0,1,.46.49.43.43,0,0,1-.46.45.46.46,0,0,1-.47-.47A.45.45,0,0,1,265.79,73.77Z" transform="translate(-238.23 -36.19)"/><path d="M320.21,73.77a.45.45,0,0,1,.46.48.46.46,0,1,1-.92,0A.46.46,0,0,1,320.21,73.77Z" transform="translate(-238.23 -36.19)"/></svg>