<svg id="Layer_1" data-name="Layer 1" xmlns="http://www.w3.org/2000/svg" viewBox="0 0 244.48 36.16"><defs><style>.cls-1{fill:#00334d;}.cls-2{fill:#fff;}</style></defs><title>lbnl-logo</title><path class="cls-1" d="M99.49,215.61A2.5,2.5,0,0,1,96.88,218H49a2.5,2.5,0,0,1-2.61-2.36V184.17A2.5,2.5,0,0,1,49,181.81H96.88a2.5,2.5,0,0,1,2.61,2.36v31.44Z" transform="translate(-46.35 -181.81)"/><polygon class="cls-2" points="47.1 15.05 45.04 10.51 43.34 13.94 43.34 13.64 45.14 9.52 47.3 14.23 47.1 15.05 47.1 15.05"/><path class="cls-2" d="M80.89,201.1l1.81-.29a4.42,4.42,0,0,0-1.16-.22h0a3,3,0,0,0-2.49.83,20.33,20.33,0,0,0-.13,2.47l1.81-.29a12.82,12.82,0,0,1,.16-2.47,0,0,0,0,1,0,0" transform="translate(-46.35 -181.81)"/><path class="cls-2" d="M75.69,201l1.82-.29a4.86,4.86,0,0,0-1.16-.22h0a3,3,0,0,0-2.49.83,20.33,20.33,0,0,0-.13,2.47l1.81-.29a12.16,12.16,0,0,1,.16-2.47v0" transform="translate(-46.35 -181.81)"/><path class="cls-2" d="M70.57,201.06l1.81-.29a4.26,4.26,0,0,0-1.16-.22h0a3,3,0,0,0-2.49.82,22.91,22.91,0,0,0-.14,2.48l1.82-.29a12.07,12.07,0,0,1,.16-2.47v0" transform="translate(-46.35 -181.81)"/><path class="cls-2" d="M65.27,201.06l1.81-.29a4.26,4.26,0,0,0-1.16-.22h0a3,3,0,0,0-2.5.82,22.89,22.89,0,0,0-.13,2.48l1.82-.29a12.06,12.06,0,0,1,.15-2.47v0" transform="translate(-46.35 -181.81)"/><path class="cls-2" d="M60.07,201.14l1.81-.3a4.68,4.68,0,0,0-1.16-.22h0a3,3,0,0,0-2.5.83,22.57,22.57,0,0,0-.13,2.47l1.82-.29a12.06,12.06,0,0,1,.15-2.47,0,0,0,0,0,0,0" transform="translate(-46.35 -181.81)"/><path class="cls-2" d="M54.88,201.06l1.81-.3a5.19,5.19,0,0,0-1.16-.22h0a3,3,0,0,0-2.49.83,22.71,22.71,0,0,0-.13,2.47l1.82-.29a12.15,12.15,0,0,1,.15-2.47s0,0,0,0" transform="translate(-46.35 -181.81)"/><polygon class="cls-2" points="16.38 8.15 19.72 6.8 22.93 8.39 22.96 8.92 23.96 8.34 24.02 7.69 20.97 6.12 16.38 8.15 16.38 8.15"/><path class="cls-2" d="M93.22,197.92V201a.4.4,0,0,1-.79,0v-3.06a.4.4,0,0,1,.79,0" transform="translate(-46.35 -181.81)"/><path class="cls-2" d="M91.85,197.91V201a.4.4,0,0,1-.79,0v-3.06a.4.4,0,0,1,.79,0" transform="translate(-46.35 -181.81)"/><path class="cls-2" d="M90.41,197.91V201a.39.39,0,0,1-.78,0v-3.07a.39.39,0,0,1,.78,0" transform="translate(-46.35 -181.81)"/><polygon class="cls-2" points="48.27 30.04 48.28 15.27 47.87 14.09 47.45 15.27 47.46 30.04 48.27 30.04 48.27 30.04"/><polygon class="cls-2" points="42.72 30.04 42.72 15.27 42.46 14.14 42.2 15.27 42.2 30.04 42.72 30.04 42.72 30.04"/><path class="cls-2" d="M51.21,194.88s5.45-3.14,10.56-3.56a26.17,26.17,0,0,1,14.6,2.34,23.75,23.75,0,0,1,6.88,4.85H85.8v13.34h-1V199.38H82.48a28.77,28.77,0,0,0-11.75-6.67c-9.91-2.6-19.2,2-19.52,2.17" transform="translate(-46.35 -181.81)"/><path class="cls-1" d="M116.69,209c1.22,0,3.58.14,3.58-2.64,0-2.49-2.28-2.82-6.2-2.56V209Zm-2.62-8c3,0,5.81.31,5.81-2.21s-3-2.33-5.81-2.33V201Zm-4,10.88V193.55h5.81c6.54,0,8.2,2.08,8.2,5a4.09,4.09,0,0,1-2.54,3.79,4.57,4.57,0,0,1,2.93,4.21c0,3.16-2.83,5.28-6.51,5.28Z" transform="translate(-46.35 -181.81)"/><polygon class="cls-1" points="92.12 14.85 83.61 14.85 83.61 19.23 90.66 19.23 90.66 22.33 83.61 22.33 83.61 26.95 92.61 26.95 92.61 30.05 79.56 30.05 79.56 11.74 92.12 11.74 92.12 14.85 92.12 14.85"/><path class="cls-1" d="M146.4,201.16c1.76,0,4.46.09,4.46-2.19,0-2.52-2.72-2.31-4.72-2.31h-1.5v4.5Zm2.15-7.61c4.65,0,6.46,3,6.46,5.35a5,5,0,0,1-3.42,4.61l4,8.36h-4.26l-3.63-7.61h-3.08v7.61h-4V193.55Z" transform="translate(-46.35 -181.81)"/><polygon class="cls-1" points="121.03 11.74 125.7 11.74 119.69 18.9 126.45 30.05 121.84 30.05 116.96 22.12 114.86 24.55 114.86 30.05 110.81 30.05 110.81 11.74 114.86 11.74 114.86 19.39 121.03 11.74 121.03 11.74"/><polygon class="cls-1" points="140.1 14.85 131.6 14.85 131.6 19.23 138.65 19.23 138.65 22.33 131.6 22.33 131.6 26.95 140.59 26.95 140.59 30.05 127.55 30.05 127.55 11.74 140.1 11.74 140.1 14.85 140.1 14.85"/><polygon class="cls-1" points="146.64 26.95 155.05 26.95 155.05 30.05 142.6 30.05 142.6 11.74 146.64 11.74 146.64 26.95 146.64 26.95"/><polygon class="cls-1" points="169.6 14.85 161.09 14.85 161.09 19.23 168.15 19.23 168.15 22.33 161.09 22.33 161.09 26.95 170.09 26.95 170.09 30.05 157.05 30.05 157.05 11.74 169.6 11.74 169.6 14.85 169.6 14.85"/><polygon class="cls-1" points="181.67 22.66 181.67 30.05 177.62 30.05 177.62 22.66 171 11.74 175.31 11.74 179.67 19.79 184.18 11.74 188.36 11.74 181.67 22.66 181.67 22.66"/><polygon class="cls-1" points="201.67 26.95 210.07 26.95 210.07 30.05 197.63 30.05 197.63 11.74 201.67 11.74 201.67 26.95 201.67 26.95"/><path class="cls-1" d="M266.34,196.71h-.1l-2.13,7.67h4.36l-2.13-7.67Zm8.38,15.15H270.6l-1.33-4.58h-6L262,211.86h-4.12l5.65-18.31H269l5.76,18.31Z" transform="translate(-46.35 -181.81)"/><path class="cls-1" d="M283.1,209c1.22,0,3.58.14,3.58-2.64,0-2.49-2.28-2.82-6.2-2.56V209Zm-2.62-8c3,0,5.82.31,5.82-2.21s-3-2.33-5.82-2.33V201Zm-4.05,10.88V193.55h5.81c6.54,0,8.2,2.08,8.2,5a4.09,4.09,0,0,1-2.54,3.79,4.57,4.57,0,0,1,2.93,4.21c0,3.16-2.83,5.28-6.51,5.28Z" transform="translate(-46.35 -181.81)"/></svg>