<svg id="Layer_1" data-name="Layer 1" xmlns="http://www.w3.org/2000/svg" viewBox="0 0 104.85 41.84"><defs><style>.cls-1{fill:#22408c;}.cls-2{fill:#009a63;}</style></defs><title>riken-logo</title><path class="cls-1" d="M52.47,69.39A4.43,4.43,0,0,1,52.05,71a14.21,14.21,0,0,0,2.73-2.83A15.57,15.57,0,0,0,58,58.69a15.31,15.31,0,0,0-30.62-.52c0,.21-.1,1.46-.1,2.51V78.61c0,.74,0,1.78.1,2.94a3.39,3.39,0,0,0,2.73,3.25A5.54,5.54,0,0,0,31.5,85c2.2,0,3.88-1.26,4-3.46.1-1.16.1-2.31.1-2.94V59.53a8.33,8.33,0,0,1,1-4.61,6.87,6.87,0,0,1,6.08-3.46A7.26,7.26,0,0,1,50,58.69v.63a8.6,8.6,0,0,0-5.77-2.41,8.51,8.51,0,0,0-8.6,8.6A8.42,8.42,0,0,0,44.19,74h.94a5.28,5.28,0,0,1-3.35-5.35,5.39,5.39,0,0,1,5.76-4.93A5.18,5.18,0,0,1,52.47,69.39Z" transform="translate(-27.31 -43.38)"/><path class="cls-2" d="M52.89,73.89a5.67,5.67,0,1,0,5.66,5.67A5.71,5.71,0,0,0,52.89,73.89Z" transform="translate(-27.31 -43.38)"/><rect class="cls-1" x="69.1" y="30.09" width="3.67" height="10.59"/><polyline class="cls-1" points="56.62 22.02 52.85 22.02 52.85 40.58 56.62 40.58 56.62 22.02"/><rect class="cls-1" x="60.29" y="22.02" width="3.67" height="18.56"/><polygon class="cls-1" points="95.21 27.47 95.21 22.02 91.54 22.02 91.54 26.95 91.54 29.04 91.54 40.58 95.21 40.58 95.21 34.81 95.21 27.47"/><polygon class="cls-1" points="104.85 22.02 101.08 22.02 101.08 32.71 97.83 29.46 95.21 32.09 101.08 37.96 101.08 40.58 104.85 40.58 104.85 40.58 104.85 22.02"/><polygon class="cls-1" points="66.69 31.77 75.07 23.38 72.35 20.76 64.06 29.04 66.69 31.77"/><path class="cls-1" d="M70.3,68.86A3.58,3.58,0,0,1,73,72.32a3.82,3.82,0,0,1-3.67,3.78h0l5.14,8.8L77.74,83l-3.35-5.88h0a6.64,6.64,0,0,0,2.3-4.82,6.53,6.53,0,0,0-2-4.82,5.53,5.53,0,0,0-.94-.74,5.89,5.89,0,0,0-3.15-1.15,22.29,22.29,0,0,0-3.46-.21H63.27v3.25h3.78a28,28,0,0,1,3.25.21" transform="translate(-27.31 -43.38)"/><polyline class="cls-1" points="35.96 34.18 35.96 28.31 39.63 28.31 39.63 40.58 35.96 40.58 35.96 34.18"/><rect class="cls-1" x="76.54" y="22.02" width="11.22" height="3.56"/><rect class="cls-1" x="76.54" y="37.01" width="11.22" height="3.56"/><rect class="cls-1" x="76.54" y="29.57" width="11.22" height="3.56"/></svg>