<svg id="Layer_1" data-name="Layer 1" xmlns="http://www.w3.org/2000/svg" viewBox="0 0 128.07 39.42"><defs><style>.cls-1{fill:#003a70;}</style></defs><title>ucb-logo</title><path class="cls-1" d="M216.53,147.46c-2,0-3.93-.47-6-.47s-3,.19-4.49.19c-.46,0-.79-.05-.79-.52s.28-.56,1.31-.56c2.1,0,2.19-.09,2.19-.79V123.83c0-3.69-.75-4.11-2.05-4.11-2.1,0-2.29,0-2.29-.61,0-.33.14-.38.93-.38,1.45,0,2.9,0,4.53,0,1,0,3.23-.28,7.43-.28,6.07,0,8.69,3.13,8.69,6.45a6.88,6.88,0,0,1-3.51,6,16.39,16.39,0,0,0-1.91,1.27c0,.09.89.32,1.82.79,2.19,1.12,5,2.71,5,6.77,0,5.23-4.34,7.71-10.83,7.71m-.61-27.84c-3.08,0-3.22.42-3.22,1.36v10.13c0,.75.6.66,1.72.66a37.6,37.6,0,0,1,4.81.28c1.36-1,2.9-1.92,2.9-5.61,0-2.33-2-6.82-6.21-6.82m-1.54,13c-1.31,0-1.68.19-1.68,1.22v8.36c0,.42.14,3,.56,3.5s2,.89,3.5.89c3.55,0,6.16-2.43,6.16-6.49,0-4.21-3.45-7.48-8.54-7.48" transform="translate(-204.43 -118.5)"/><path class="cls-1" d="M242.25,135.86a63.3,63.3,0,0,1-9.75,1.42c-.65,0-.77.25-.77,1.18,0,5.61,4.34,7.11,7.43,7.11a10.82,10.82,0,0,0,4.39-1c.2,0,.32.25.32.33a11.52,11.52,0,0,1-6.74,2.76c-3.33,0-8.29-1.62-8.29-8.41,0-5.73,3.86-9.14,7.56-9.14a9,9,0,0,1,6.17,3.05,6.13,6.13,0,0,1,1.35,2.11c0,.16-.57.33-1.67.57M236,131c-3.08,0-4.06,4.63-4.06,5.2,0,.2,0,.24.49.24a51.08,51.08,0,0,0,7.35-1c.45-.08.49-.16.49-.4,0-1-2.4-4-4.27-4" transform="translate(-204.43 -118.5)"/><path class="cls-1" d="M257.12,134.76c-.57,0-1.06-1.66-3.09-1.66-2.36,0-3.25,1-3.25,2.68v8.37c0,2,.12,2,3.13,2,1.05,0,1.09.12,1.09.48s0,.41-1.09.41c-.57,0-3.29-.2-4.59-.2s-2.76.2-3.33.2c-.94,0-1,0-1-.41s0-.48,1-.48c1.66,0,1.78,0,1.78-.61V134.4c0-2.76.08-2.85-2.19-2.85-.73,0-.73,0-.73-.4s0-.61.65-.61c1.38,0,2.15.08,3,.08.65,0,1.43-.2,2.08-.2.16,0,.32.12.32.44s-.08,1.1-.08,1.22c0,.37,0,.65.2.65.61,0,2.52-2.11,4.43-2.11.73,0,2.6.89,2.6,1.95,0,.41-.65,2.19-.89,2.19" transform="translate(-204.43 -118.5)"/><path class="cls-1" d="M276.33,147.19c-.49,0-1,0-1.38,0l-2.27,0c-.74,0-1.1-1-2.81-3s-3.41-4.51-3.65-4.51a7.47,7.47,0,0,0-1.43.85c-.65.41-1.21.69-1.21,1.06v2.56c0,1.91-.09,1.91,2.43,1.91.94,0,1.1.2,1.1.52s-.2.41-1.1.41c-.61,0-2.47-.08-3.77-.08s-2.89.08-3.46.08c-.93,0-1.18,0-1.18-.41s.21-.52,1.18-.52c1.38,0,1.75,0,1.75-.61,0-1.18.12-13.2.12-21.78,0-2.88-.32-3.25-1.42-3.25-1.67,0-1.83-.12-1.83-.4s.08-.57.53-.57a25.13,25.13,0,0,0,5.69-.89c.2,0,.28.12.28.36,0,.53-.08,2.24-.08,3.54,0,6.17-.24,10.72-.24,17.34,0,.16,0,.29.16.29,1,0,5.24-3.74,6.54-5,1.58-1.5,2-2.19,2-3,0-.65-.12-.73-1.91-.73-.61,0-.81-.08-.81-.45s.2-.4.73-.4,1.18.12,1.66.12,2.89-.12,3.38-.12c.32,0,.48,0,.48.16a12.35,12.35,0,0,1-2.64,3.33c-2,2-4.55,3.78-4.55,4.06s.73,1.14,3.58,4.55c1.38,1.67,2.68,3.66,4.06,3.66,1,0,1.3.2,1.3.53s-.28.36-1.18.36" transform="translate(-204.43 -118.5)"/><path class="cls-1" d="M289.62,135.86a63.3,63.3,0,0,1-9.75,1.42c-.65,0-.77.25-.77,1.18,0,5.61,4.34,7.11,7.43,7.11a10.88,10.88,0,0,0,4.39-1c.2,0,.32.25.32.33a11.52,11.52,0,0,1-6.74,2.76c-3.33,0-8.29-1.62-8.29-8.41,0-5.73,3.86-9.14,7.56-9.14a9,9,0,0,1,6.17,3.05,6.22,6.22,0,0,1,1.34,2.11c0,.16-.57.33-1.66.57M283.36,131c-3.09,0-4.06,4.63-4.06,5.2,0,.2,0,.24.49.24a51.08,51.08,0,0,0,7.35-1c.44-.08.49-.16.49-.4,0-1-2.4-4-4.27-4" transform="translate(-204.43 -118.5)"/><path class="cls-1" d="M298.56,147c-.61,0-1.5-.08-2.23-.08-1.38,0-3.54.08-4.11.08-.93,0-1-.08-1-.4s0-.53,1-.53c1.67,0,2.36,0,2.36-.69V123c0-2.56-.24-2.56-2.07-2.56-.73,0-1.14-.08-1.14-.52s.33-.45,1-.49a21.13,21.13,0,0,0,4.95-.9c.21,0,.41.21.41.65s-.2,2-.2,3.17c0,15.48-.21,18.69-.21,19.87,0,3.37.29,3.82,1,3.82,2,0,1.95.24,1.95.57s-.29.4-1.75.4" transform="translate(-204.43 -118.5)"/><path class="cls-1" d="M313.05,135.86a63.3,63.3,0,0,1-9.75,1.42c-.65,0-.78.25-.78,1.18,0,5.61,4.35,7.11,7.44,7.11a10.88,10.88,0,0,0,4.39-1c.2,0,.32.25.32.33a11.52,11.52,0,0,1-6.74,2.76c-3.33,0-8.29-1.62-8.29-8.41,0-5.73,3.86-9.14,7.56-9.14a9,9,0,0,1,6.17,3.05,6.22,6.22,0,0,1,1.34,2.11c0,.16-.57.33-1.66.57M306.79,131c-3.09,0-4.06,4.63-4.06,5.2,0,.2,0,.24.49.24a51.08,51.08,0,0,0,7.35-1c.45-.08.49-.16.49-.4,0-1-2.4-4-4.27-4" transform="translate(-204.43 -118.5)"/><path class="cls-1" d="M331.45,131.51c-.9,0-2.68,4.88-5.89,12.68-2.56,6.21-4.39,9.5-5.69,12.18-.45.9-.93.94-1.83,1.06a21.69,21.69,0,0,1-2.39.49c-.69,0-1.1-.21-1.1-.41s1.91-.49,3.29-2.23,5-6.62,5-7.84c0-.45-3.25-8-5.49-13.25-1-2.43-1.3-2.64-2-2.64s-.85,0-.85-.4.12-.57.85-.57c1.14,0,1.42.08,2.4.08s2.56-.12,3.86-.12c.85,0,1,.16,1,.61s-.16.4-1,.4-1.22.25-1.22,1.18c0,1.18,1.05,2.6,3.49,8.86.33.85.81,1.54,1,1.54s.52-.57,1.17-2.48c1-2.92,2.44-7.15,2.44-7.71,0-1.22,0-1.47-1.38-1.47s-1.42,0-1.42-.4.12-.53.85-.53c1.1,0,1.83.08,2.93.08.61,0,1.7-.16,2.27-.16s.85,0,.85.48-.56.57-1.05.57" transform="translate(-204.43 -118.5)"/><path class="cls-1" d="M210,157.32a1.79,1.79,0,0,1-2-2v-3.54h.94v3.59c0,.68.29,1.12,1.06,1.12s1.06-.44,1.06-1.12v-3.59H212v3.53a1.8,1.8,0,0,1-2,2" transform="translate(-204.43 -118.5)"/><polygon class="cls-1" points="12.1 38.73 9.81 35.09 9.8 35.09 9.8 38.73 8.85 38.73 8.85 33.39 9.77 33.3 11.98 36.87 12 36.87 12 33.3 12.94 33.3 12.94 38.73 12.1 38.73 12.1 38.73"/><polygon class="cls-1" points="14.29 33.3 15.23 33.3 15.23 38.73 14.29 38.73 14.29 33.3 14.29 33.3"/><path class="cls-1" d="M223.5,157.24h-1l-1.87-5.44h1l1,3s.1.32.36,1.25h0c.27-.93.37-1.24.37-1.24l1-3h.93l-1.88,5.44Z" transform="translate(-204.43 -118.5)"/><polygon class="cls-1" points="25.17 38.73 21.87 38.73 21.87 33.3 25.1 33.3 25.1 34.1 22.81 34.1 22.81 35.59 24.85 35.59 24.85 36.4 22.81 36.4 22.81 37.93 25.24 37.93 25.17 38.73 25.17 38.73"/><path class="cls-1" d="M233.76,157.24l-.75-1.53c-.16-.33-.36-.65-.7-.65h-.45v2.18h-.94V151.8h1.74a1.56,1.56,0,0,1,1.79,1.61,1.48,1.48,0,0,1-1,1.48h0a.83.83,0,0,1,.33.38l1,2Zm-1.12-4.63h-.78v1.66h.79a.76.76,0,0,0,.84-.85c0-.51-.21-.81-.85-.81" transform="translate(-204.43 -118.5)"/><path class="cls-1" d="M237.24,157.32a3.14,3.14,0,0,1-1.79-.6l.4-.7a2.68,2.68,0,0,0,1.39.5c.63,0,.94-.35.94-.75,0-1-2.4-.69-2.4-2.51a1.6,1.6,0,0,1,1.76-1.54,3,3,0,0,1,1.57.48l-.34.68a2.66,2.66,0,0,0-1.23-.36c-.53,0-.8.29-.8.7,0,1.23,2.41.67,2.41,2.52a1.75,1.75,0,0,1-1.91,1.58" transform="translate(-204.43 -118.5)"/><polygon class="cls-1" points="35.84 33.3 36.78 33.3 36.78 38.73 35.84 38.73 35.84 33.3 35.84 33.3"/><polygon class="cls-1" points="41.62 34.1 40.25 34.1 40.25 38.73 39.31 38.73 39.31 34.11 37.87 34.11 37.87 33.3 41.69 33.3 41.62 34.1 41.62 34.1"/><path class="cls-1" d="M249.39,154.91v2.33h-.94v-2.33l-1.71-3.11h1.06l.72,1.55s.11.2.39.8h0c.27-.6.37-.8.37-.8l.77-1.55h1l-1.72,3.11Z" transform="translate(-204.43 -118.5)"/><path class="cls-1" d="M256.69,157.32c-1.64,0-2.37-1.25-2.37-2.8s.73-2.8,2.37-2.8,2.36,1.16,2.36,2.8-.72,2.8-2.36,2.8m0-4.8c-.94,0-1.4.81-1.4,2s.46,2,1.4,2,1.38-.82,1.38-2-.45-2-1.38-2" transform="translate(-204.43 -118.5)"/><polygon class="cls-1" points="56.77 34.1 56.77 35.59 58.77 35.59 58.77 36.4 56.77 36.4 56.77 38.73 55.83 38.73 55.83 33.3 59 33.3 59 34.1 56.77 34.1 56.77 34.1"/><path class="cls-1" d="M269.38,157.32c-1.67,0-2.4-1.13-2.4-2.8s.8-2.8,2.44-2.8a2.71,2.71,0,0,1,1.8.7l-.49.63a1.92,1.92,0,0,0-1.31-.53c-1,0-1.47.72-1.47,2s.48,2,1.48,2a2.2,2.2,0,0,0,1.44-.62l.48.61a2.9,2.9,0,0,1-2,.81" transform="translate(-204.43 -118.5)"/><path class="cls-1" d="M275.81,157.24l-.46-1.31h-2.18l-.46,1.31h-.88l1.91-5.36,1.11-.08,1.92,5.44Zm-1.11-3.18s-.07-.18-.44-1.3h0l-.42,1.3-.42,1.19h1.72l-.42-1.19Z" transform="translate(-204.43 -118.5)"/><polygon class="cls-1" points="76.32 38.73 73.11 38.73 73.11 33.3 74.05 33.3 74.05 37.93 76.39 37.93 76.32 38.73 76.32 38.73"/><polygon class="cls-1" points="77.31 33.3 78.26 33.3 78.26 38.73 77.31 38.73 77.31 33.3 77.31 33.3"/><polygon class="cls-1" points="80.43 34.1 80.43 35.59 82.42 35.59 82.42 36.4 80.43 36.4 80.43 38.73 79.48 38.73 79.48 33.3 82.66 33.3 82.66 34.1 80.43 34.1 80.43 34.1"/><path class="cls-1" d="M290.06,157.32c-1.64,0-2.37-1.25-2.37-2.8s.73-2.8,2.37-2.8,2.36,1.16,2.36,2.8-.72,2.8-2.36,2.8m0-4.8c-.94,0-1.4.81-1.4,2s.46,2,1.4,2,1.38-.82,1.38-2-.45-2-1.38-2" transform="translate(-204.43 -118.5)"/><path class="cls-1" d="M296.08,157.24l-.75-1.53c-.16-.33-.36-.65-.7-.65h-.45v2.18h-.95V151.8H295a1.56,1.56,0,0,1,1.79,1.61,1.49,1.49,0,0,1-1,1.48h0a.89.89,0,0,1,.33.38l1,2ZM295,152.61h-.77v1.66H295a.75.75,0,0,0,.83-.85c0-.51-.2-.81-.85-.81" transform="translate(-204.43 -118.5)"/><polygon class="cls-1" points="96.68 38.73 94.39 35.09 94.37 35.09 94.37 38.73 93.43 38.73 93.43 33.39 94.34 33.3 96.55 36.87 96.57 36.87 96.57 33.3 97.52 33.3 97.52 38.73 96.68 38.73 96.68 38.73"/><polygon class="cls-1" points="98.7 33.3 99.65 33.3 99.65 38.73 98.7 38.73 98.7 33.3 98.7 33.3"/><path class="cls-1" d="M308.82,157.24l-.45-1.31h-2.19l-.45,1.31h-.88l1.91-5.36,1.1-.08,1.93,5.44Zm-1.11-3.18s-.07-.18-.44-1.3h0l-.43,1.3-.42,1.19h1.72l-.42-1.19Z" transform="translate(-204.43 -118.5)"/></svg>